<?xml version="1.0" standalone="no"?>
<!DOCTYPE svg PUBLIC "-//W3C//DTD SVG 20010904//EN"
 "http://www.w3.org/TR/2001/REC-SVG-20010904/DTD/svg10.dtd">
<svg version="1.0" xmlns="http://www.w3.org/2000/svg"
 width="1600.000000pt" height="1600.000000pt" viewBox="0 0 1600.000000 1600.000000"
 preserveAspectRatio="xMidYMid meet">
<metadata>
Created by potrace 1.11, written by Peter Selinger 2001-2013
</metadata>
<g transform="translate(0.000000,1600.000000) scale(0.100000,-0.100000)"
fill="#000000" stroke="none">
<path d="M0 8000 l0 -8000 8000 0 8000 0 0 8000 0 8000 -8000 0 -8000 0 0
-8000z m11741 3763 c80 -39 150 -111 187 -191 l27 -57 0 -3505 0 -3505 -27
-57 c-37 -80 -107 -152 -187 -191 l-66 -32 -3675 0 -3675 0 -57 27 c-80 37
-152 107 -191 187 l-32 66 0 3505 0 3505 27 57 c48 103 144 187 247 214 36 10
826 12 3701 11 l3655 -2 66 -32z"/>
<path d="M4345 11581 c-48 -22 -69 -44 -90 -94 -13 -32 -15 -403 -15 -3479 0
-3320 1 -3444 19 -3483 22 -48 44 -69 94 -90 32 -13 420 -15 3647 -15 3227 0
3615 2 3647 15 50 21 72 42 94 90 18 39 19 163 19 3485 0 3322 -1 3446 -19
3485 -22 48 -44 69 -94 90 -32 13 -420 15 -3649 15 -3485 0 -3614 -1 -3653
-19z m2485 -1420 c112 -22 225 -59 325 -105 l71 -33 73 33 c96 44 235 88 346
110 134 27 396 25 532 -4 167 -36 346 -108 488 -195 l39 -25 51 30 c132 78
290 137 460 170 139 27 365 30 502 5 569 -103 1004 -517 1099 -1047 8 -47 15
-143 15 -215 2 -613 -446 -1126 -1093 -1255 l-57 -11 -3 -472 c-3 -469 -3
-472 -26 -514 -12 -24 -41 -55 -64 -70 l-42 -28 -1519 -3 -1520 -2 -45 21
c-29 15 -54 37 -73 67 l-29 46 0 487 0 488 -57 11 c-503 99 -893 425 -1043
871 -81 238 -80 531 1 773 159 476 596 818 1131 886 104 13 327 3 438 -19z
m2529 -4135 c60 -32 67 -120 12 -163 -27 -21 -306 -128 -486 -186 -496 -160
-901 -194 -1375 -116 -245 40 -814 204 -856 246 -24 24 -36 63 -29 94 8 34 58
79 89 79 12 0 82 -20 156 -45 276 -93 525 -155 760 -192 164 -25 520 -25 685
1 243 37 570 132 840 245 129 53 161 59 204 37z"/>
<path d="M6440 9983 c-491 -52 -891 -377 -1010 -818 -33 -121 -38 -330 -12
-455 40 -193 127 -361 262 -503 215 -228 480 -354 788 -374 l92 -6 0 -549 0
-548 1460 0 1460 0 0 540 0 540 59 0 c82 0 220 26 323 60 181 61 327 150 457
280 137 136 234 300 283 480 20 74 23 108 23 260 0 153 -3 185 -23 255 -28 98
-95 241 -152 326 -61 92 -222 244 -323 307 -424 264 -973 246 -1367 -44 l-60
-44 -63 48 c-180 140 -382 219 -624 243 -241 25 -507 -31 -715 -151 l-67 -38
-128 64 c-208 105 -447 150 -663 127z"/>
</g>
</svg>
